<svg width="121" height="81" viewBox="0 0 128 64" fill="none" xmlns="http://www.w3.org/2000/svg">
<path d="M0 14.0002H26.8848C29.0425 14.0002 30.9568 15.3844 31.6329 17.4334L45.8671 60.5671C46.5432 62.6161 48.4575 64.0002 50.6152 64.0002H92.4414C94.5716 64.0002 96.4679 62.6506 97.1656 60.638L106.699 33.138C107.825 29.8896 105.413 26.5002 101.975 26.5002H47" stroke="black" stroke-width="7"/>
<circle cx="60" cy="80" r="6" fill="black"/>
<circle cx="85" cy="80" r="6" fill="black"/>

<path d="M77.7917 42.0674C70.1748 34.068 70.4849 21.4085 78.4843 13.7917V13.7917C86.4837 6.17477 99.1432 6.48486 106.76 14.4843V14.4843C114.377 22.4837 114.067 35.1432 106.068 42.76V42.76C98.0681 50.3769 85.4086 50.0668 77.7917 42.0674V42.0674Z" fill="white"/>
<path d="M79 29L91 40L105.5 18" stroke="black" stroke-width="7"/>
</svg>
